<svg width="80" height="80" viewBox="0 0 80 80" fill="none" xmlns="http://www.w3.org/2000/svg">
<rect width="80" height="80" rx="40" fill="#013652"/>
<path d="M61.2132 18.7868C55.547 13.1206 48.0132 10 40 10C31.9868 10 24.453 13.1206 18.7868 18.7868C13.1205 24.4531 10 31.9867 10 40C10 48.0133 13.1205 55.5469 18.7868 61.2132C24.453 66.8794 31.9868 70 40 70C44.049 70 47.9781 69.2065 51.6782 67.6415L49.7895 63.176C46.6902 64.4869 43.3965 65.1515 40 65.1515C26.1314 65.1515 14.8485 53.8686 14.8485 40C14.8485 26.1314 26.1314 14.8485 40 14.8485C53.8686 14.8485 65.1515 26.1314 65.1515 40C65.1515 45.836 61.7525 48.4484 58.3839 48.4484C55.0152 48.4484 51.6161 45.8361 51.6161 40C51.6161 33.5948 46.4052 28.3839 40 28.3839C33.5948 28.3839 28.3839 33.5949 28.3839 40C28.3839 46.4051 33.5948 51.6161 40 51.6161C43.4606 51.6161 46.572 50.0944 48.7019 47.6857C50.8958 51.3895 54.6543 53.2967 58.3839 53.2967C64.1564 53.2968 70 48.7295 70 40C70 31.9867 66.8795 24.4531 61.2132 18.7868ZM40 46.7676C36.2684 46.7676 33.2324 43.7316 33.2324 40C33.2324 36.2684 36.2684 33.2324 40 33.2324C43.7316 33.2324 46.7676 36.2684 46.7676 40C46.7676 43.7316 43.7316 46.7676 40 46.7676Z" fill="white"/>
</svg>
