<svg width="80" height="80" viewBox="0 0 80 80" fill="none" xmlns="http://www.w3.org/2000/svg">
<rect width="80" height="80" rx="40" fill="#013652"/>
<path d="M40.0007 13.334C32.764 13.334 31.854 13.3673 29.0107 13.494C26.1673 13.6273 24.2307 14.074 22.534 14.734C20.7543 15.4034 19.1423 16.4534 17.8107 17.8107C16.4542 19.143 15.4043 20.7548 14.734 22.534C14.074 24.2273 13.624 26.1673 13.494 29.0007C13.3673 31.8507 13.334 32.7573 13.334 40.004C13.334 47.244 13.3673 48.1507 13.494 50.994C13.6273 53.834 14.074 55.7706 14.734 57.4673C15.4173 59.2206 16.3273 60.7073 17.8107 62.1906C19.2907 63.674 20.7773 64.5873 22.5307 65.2673C24.2307 65.9273 26.164 66.3773 29.004 66.5073C31.8507 66.634 32.7573 66.6673 40.0007 66.6673C47.244 66.6673 48.1473 66.634 50.994 66.5073C53.8307 66.374 55.774 65.9273 57.4706 65.2673C59.2492 64.5976 60.86 63.5476 62.1906 62.1906C63.674 60.7073 64.584 59.2206 65.2673 57.4673C65.924 55.7706 66.374 53.834 66.5073 50.994C66.634 48.1507 66.6673 47.244 66.6673 40.0007C66.6673 32.7573 66.634 31.8507 66.5073 29.004C66.374 26.1673 65.924 24.2273 65.2673 22.534C64.5971 20.7547 63.5471 19.1429 62.1906 17.8107C60.8594 16.4529 59.2473 15.4028 57.4673 14.734C55.7673 14.074 53.8273 13.624 50.9907 13.494C48.144 13.3673 47.2407 13.334 39.994 13.334H40.004H40.0007ZM37.6107 18.1407H40.004C47.124 18.1407 47.9673 18.164 50.7773 18.294C53.3773 18.4107 54.7906 18.8473 55.7306 19.2107C56.974 19.694 57.864 20.274 58.7973 21.2073C59.7306 22.1407 60.3073 23.0273 60.7907 24.274C61.1573 25.2107 61.5906 26.624 61.7073 29.224C61.8373 32.034 61.864 32.8773 61.864 39.994C61.864 47.1106 61.8373 47.9573 61.7073 50.7673C61.5906 53.3673 61.154 54.7773 60.7907 55.7173C60.3631 56.8752 59.6807 57.9221 58.794 58.7807C57.8606 59.714 56.974 60.2906 55.7273 60.774C54.794 61.1407 53.3806 61.574 50.7773 61.694C47.9673 61.8207 47.124 61.8507 40.004 61.8507C32.884 61.8507 32.0373 61.8207 29.2273 61.694C26.6273 61.574 25.2173 61.1407 24.2773 60.774C23.119 60.3471 22.0711 59.6659 21.2107 58.7807C20.3232 57.9208 19.6397 56.8728 19.2107 55.714C18.8473 54.7773 18.4107 53.364 18.294 50.764C18.1673 47.954 18.1407 47.1106 18.1407 39.9873C18.1407 32.8673 18.1673 32.0273 18.294 29.2173C18.414 26.6173 18.8473 25.204 19.214 24.264C19.6973 23.0207 20.2773 22.1307 21.2107 21.1973C22.144 20.264 23.0307 19.6873 24.2773 19.204C25.2173 18.8373 26.6273 18.404 29.2273 18.284C31.6873 18.1707 32.6406 18.1373 37.6107 18.134V18.1407ZM54.2373 22.5673C53.8171 22.5673 53.401 22.6501 53.0127 22.8109C52.6245 22.9717 52.2717 23.2074 51.9746 23.5046C51.6774 23.8017 51.4417 24.1545 51.2809 24.5427C51.1201 24.931 51.0373 25.3471 51.0373 25.7673C51.0373 26.1875 51.1201 26.6037 51.2809 26.9919C51.4417 27.3801 51.6774 27.7329 51.9746 28.0301C52.2717 28.3272 52.6245 28.5629 53.0127 28.7237C53.401 28.8845 53.8171 28.9673 54.2373 28.9673C55.086 28.9673 55.8999 28.6302 56.5001 28.0301C57.1002 27.4299 57.4373 26.616 57.4373 25.7673C57.4373 24.9186 57.1002 24.1047 56.5001 23.5046C55.8999 22.9045 55.086 22.5673 54.2373 22.5673ZM40.004 26.3073C38.1876 26.279 36.3836 26.6123 34.6972 27.2878C33.0109 27.9633 31.4757 28.9676 30.1812 30.2421C28.8866 31.5166 27.8585 33.0359 27.1568 34.7115C26.455 36.3872 26.0937 38.1857 26.0937 40.0023C26.0937 41.819 26.455 43.6175 27.1568 45.2931C27.8585 46.9688 28.8866 48.4881 30.1812 49.7626C31.4757 51.0371 33.0109 52.0413 34.6972 52.7168C36.3836 53.3924 38.1876 53.7257 40.004 53.6973C43.5991 53.6412 47.028 52.1737 49.5506 49.6115C52.0731 47.0493 53.487 43.5979 53.487 40.0023C53.487 36.4067 52.0731 32.9554 49.5506 30.3932C47.028 27.8309 43.5991 26.3634 40.004 26.3073ZM40.004 31.1107C42.3618 31.1107 44.623 32.0473 46.2902 33.7145C47.9574 35.3817 48.894 37.6429 48.894 40.0007C48.894 42.3584 47.9574 44.6196 46.2902 46.2868C44.623 47.954 42.3618 48.8906 40.004 48.8906C37.6462 48.8906 35.385 47.954 33.7178 46.2868C32.0506 44.6196 31.114 42.3584 31.114 40.0007C31.114 37.6429 32.0506 35.3817 33.7178 33.7145C35.385 32.0473 37.6462 31.1107 40.004 31.1107Z" fill="white"/>
</svg>
