<svg width="45" height="45" viewBox="0 0 45 45" fill="none" xmlns="http://www.w3.org/2000/svg">
<rect width="45" height="45" rx="22.5" fill="#013652"/>
<path d="M28.0416 24.5425C27.4543 23.9627 26.7211 23.9627 26.1376 24.5425C25.6924 24.9839 25.2473 25.4253 24.8096 25.8741C24.6899 25.9976 24.5889 26.0238 24.443 25.9415C24.155 25.7844 23.8483 25.6572 23.5714 25.4851C22.2809 24.6734 21.1998 23.6298 20.2422 22.4552C19.7671 21.8717 19.3445 21.247 19.0489 20.5438C18.9891 20.4017 19.0003 20.3081 19.1163 20.1922C19.5614 19.762 19.9953 19.3206 20.433 18.8792C21.0427 18.2658 21.0427 17.5476 20.4293 16.9304C20.0814 16.5788 19.7335 16.2346 19.3856 15.883C19.0265 15.5239 18.6711 15.1611 18.3083 14.8057C17.721 14.2334 16.9878 14.2334 16.4043 14.8095C15.9554 15.2509 15.5252 15.7035 15.0688 16.1374C14.6461 16.5376 14.4329 17.0276 14.388 17.5999C14.317 18.5314 14.5451 19.4104 14.8668 20.267C15.5252 22.04 16.5277 23.6148 17.7434 25.0587C19.3856 27.0113 21.3457 28.5561 23.6388 29.6708C24.6712 30.1721 25.741 30.5574 26.9044 30.621C27.7049 30.6658 28.4007 30.4639 28.958 29.8392C29.3396 29.4127 29.7698 29.0237 30.1738 28.616C30.7723 28.01 30.776 27.2769 30.1812 26.6784C29.4705 25.9639 28.756 25.2532 28.0416 24.5425Z" fill="white"/>
</svg>
