<svg width="80" height="80" viewBox="0 0 80 80" fill="none" xmlns="http://www.w3.org/2000/svg">
<path d="M47.71 33.215C47.48 33.005 47.13 33.075 46.88 33.135C46.53 33.215 40.905 36.93 30.01 44.285M47.71 33.215L18.58 44.14L19.455 44.415M47.71 33.215C47.945 33.42 47.92 33.815 47.895 33.92C47.7476 34.5538 41.9662 39.9333 38.8289 42.8525L38.665 43.005L47.71 33.215ZM30.01 44.285C28.415 45.385 26.97 45.915 25.67 45.885M30.01 44.285L30.2898 44.6994C30.2905 44.6989 30.2912 44.6984 30.2919 44.6979M30.01 44.285L30.2939 44.6966C30.2932 44.6971 30.2926 44.6975 30.2919 44.6979M25.67 45.885C24.245 45.855 21.495 45.08 19.455 44.415M25.67 45.885L25.6595 46.3849C25.6591 46.3849 25.6588 46.3849 25.6585 46.3849C24.8853 46.3684 23.7948 46.1544 22.6717 45.8731C21.5374 45.5891 20.3293 45.2258 19.3026 44.8912M25.67 45.885L19.3026 44.8912M19.455 44.415L19.3051 44.892L19.3026 44.8912M19.455 44.415L19.3 44.8904L18.4301 44.617L18.4295 44.6168L18.3767 44.6002C17.3795 44.2854 16.4404 43.989 15.7734 43.6096C15.4284 43.4133 15.115 43.1731 14.901 42.8595C14.6773 42.5317 14.5816 42.1516 14.6338 41.7287L14.6339 41.728C14.7044 41.1633 15.1113 40.691 15.6443 40.2949C16.1892 39.89 16.9533 39.4996 17.9129 39.1183C29.5681 34.0404 37.3493 30.6899 41.2428 29.0684L41.435 29.53L41.2429 29.0684C46.7936 26.7591 50.1593 25.3983 52.3263 24.6119C54.4835 23.829 55.5056 23.5943 56.3456 23.5801C57.0029 23.5664 57.6479 23.76 58.189 24.1335L58.2118 24.1493L58.2328 24.1674C58.6444 24.5247 58.9075 25.0228 58.9707 25.5639C59.0549 26.1183 59.0777 26.6803 59.0388 27.2397L59.0379 27.2522L59.0378 27.2522C58.4353 33.6028 55.8261 48.9688 54.5015 56.0519C53.9323 59.1011 52.7485 60.4245 51.3215 60.5578L51.3211 60.5579C49.2931 60.7458 47.6576 59.5794 46.058 58.4387L45.9998 58.3972C45.9531 58.3639 45.9063 58.3305 45.8595 58.2971C45.467 58.017 45.0736 57.7362 44.6689 57.4752L44.6653 57.4728C42.8218 56.2605 41.3991 55.2936 39.9783 54.3231L19.3026 44.8912M30.2919 44.6979C35.738 41.0214 39.8656 38.2555 42.675 36.399C44.0803 35.4704 45.1537 34.7707 45.8966 34.2987C46.2686 34.0624 46.5545 33.8852 46.7564 33.7655C46.8578 33.7054 46.9337 33.6625 46.9865 33.6345C47.0051 33.6247 47.0181 33.6182 47.0264 33.6142C47.136 33.5887 47.2243 33.5731 47.2983 33.5737C47.3351 33.574 47.3563 33.5786 47.3665 33.5818C47.3702 33.583 47.3721 33.5839 47.3728 33.5843L47.3728 33.5843L47.3792 33.5899C47.3803 33.5915 47.3825 33.5952 47.3854 33.6017C47.3925 33.6175 47.4002 33.6426 47.4052 33.677C47.4101 33.7108 47.4112 33.7453 47.4101 33.7745C47.41 33.7769 47.4099 33.7792 47.4098 33.7814C47.4046 33.7896 47.3976 33.8003 47.3886 33.8134C47.3486 33.8717 47.2864 33.9522 47.1992 34.0561C47.0258 34.2628 46.7765 34.5348 46.464 34.8604C45.8405 35.5101 44.9873 36.3501 44.0376 37.2641C42.2051 39.028 40.0291 41.0527 38.4876 42.4871L38.3244 42.639L38.324 42.6393C38.1483 42.8032 37.9811 42.959 37.8243 43.105C37.1327 43.7495 36.6432 44.2057 36.5168 44.3362M30.2919 44.6979L39.978 54.3229C39.9781 54.3229 39.9781 54.323 39.9782 54.323C38.6748 53.4341 37.3669 52.5506 35.7346 51.4723M36.5168 44.3362C36.517 44.3359 36.5173 44.3356 36.5176 44.3353L36.875 44.685L36.5153 44.3377C36.5158 44.3372 36.5163 44.3367 36.5168 44.3362ZM36.5168 44.3362C36.2125 44.6471 35.9033 44.953 35.5891 45.2539L35.5881 45.2549L35.5768 45.2658C35.1112 45.7142 34.6482 46.1602 34.2821 46.6038C33.9143 47.0494 33.604 47.5391 33.4963 48.0844C33.2635 49.2634 34.0136 50.3368 35.7346 51.4723M35.7346 51.4723L36.0083 51.0575L35.7344 51.4722C35.7345 51.4723 35.7346 51.4723 35.7346 51.4723ZM46.9914 33.6225L46.9967 33.6212C46.995 33.6216 46.9932 33.622 46.9914 33.6225ZM79.5 40C79.5 50.4761 75.3384 60.523 67.9307 67.9307C60.523 75.3384 50.4761 79.5 40 79.5C29.5239 79.5 19.477 75.3384 12.0693 67.9307C4.6616 60.523 0.5 50.4761 0.5 40C0.5 29.5239 4.6616 19.477 12.0693 12.0693C19.477 4.6616 29.5239 0.5 40 0.5C50.4761 0.5 60.523 4.6616 67.9307 12.0693C75.3384 19.477 79.5 29.5239 79.5 40Z" fill="#013652" stroke="white"/>
</svg>
