<svg width="80" height="80" viewBox="0 0 80 80" fill="none" xmlns="http://www.w3.org/2000/svg">
<path d="M40 80C62.0914 80 80 62.0914 80 40C80 17.9086 62.0914 0 40 0C17.9086 0 0 17.9086 0 40C0 62.0914 17.9086 80 40 80Z" fill="#013652"/>
<path d="M45.768 21.2109H34.232C23.7039 21.2109 21.2109 23.7039 21.2109 34.232V45.768C21.2109 56.2961 23.7039 58.7891 34.232 58.7891H45.768C56.2961 58.7891 58.7891 56.2961 58.7891 45.768V34.232C58.7891 23.7039 56.2695 21.2109 45.768 21.2109ZM51.5492 48.0219H48.8148C47.7805 48.0219 47.4625 47.2 45.6063 45.3172C43.9883 43.7547 43.2727 43.5406 42.8719 43.5406C42.3148 43.5406 42.1555 43.6969 42.1555 44.4688V46.9352C42.1555 47.5984 41.943 47.9961 40.193 47.9961C37.3023 47.9961 34.0938 46.2461 31.8391 42.9836C28.4445 38.2102 27.5164 34.6297 27.5164 33.8875C27.5164 33.4898 27.6727 33.1188 28.4445 33.1188H31.1789C31.8687 33.1188 32.1336 33.4367 32.3984 34.1797C33.7508 38.0781 36.0055 41.4992 36.9297 41.4992C37.2742 41.4992 37.4336 41.343 37.4336 40.4648V36.4336C37.3273 34.5773 36.3461 34.418 36.3461 33.7555C36.3461 33.4375 36.6109 33.1188 37.0359 33.1188H41.3328C41.9164 33.1188 42.1281 33.4367 42.1281 34.1266V39.5625C42.1281 40.1461 42.393 40.3578 42.5523 40.3578C42.8969 40.3578 43.1891 40.1453 43.825 39.5094C45.7875 37.3086 47.193 33.9141 47.193 33.9141C47.3789 33.5164 47.6969 33.1453 48.3867 33.1453H51.1211C51.943 33.1453 52.1289 33.5695 51.943 34.1531C51.5984 35.7445 48.257 40.4648 48.257 40.4648C47.9656 40.9422 47.8594 41.1547 48.257 41.6844C48.5484 42.082 49.507 42.9039 50.1398 43.6469C51.307 44.975 52.2086 46.0867 52.4469 46.8555C52.7164 47.6242 52.318 48.0219 51.5492 48.0219Z" fill="#F1F1F1"/>
</svg>
