<svg width="80" height="80" viewBox="0 0 80 80" fill="none" xmlns="http://www.w3.org/2000/svg">
<rect width="80" height="80" rx="40" fill="#013652"/>
<path d="M58.8756 21.0875C56.4194 18.6197 53.4945 16.6633 50.2712 15.3322C47.0479 14.001 43.5907 13.3218 40.1011 13.3341C25.4786 13.3341 13.5617 25.1941 13.5483 39.7541C13.5483 44.4174 14.7738 48.954 17.0875 52.9707L13.334 66.6673L27.4107 62.994C31.3049 65.1037 35.6676 66.2095 40.1011 66.2107H40.1145C54.7403 66.2107 66.6539 54.3507 66.6673 39.7774C66.6707 36.3042 65.9836 32.8647 64.6458 29.657C63.3079 26.4493 61.3457 23.5369 58.8722 21.0875H58.8756ZM40.1011 61.7373C36.1466 61.7387 32.2648 60.6793 28.8639 58.6707L28.0602 58.1907L19.7093 60.3707L21.9394 52.2607L21.417 51.424C19.2064 47.9251 18.0373 43.8741 18.0452 39.7407C18.0452 27.6541 27.9464 17.7941 40.1145 17.7941C43.0133 17.789 45.8845 18.355 48.5626 19.4598C51.2406 20.5645 53.6725 22.186 55.718 24.2308C57.7707 26.2676 59.398 28.6889 60.506 31.3549C61.614 34.0209 62.1808 36.8789 62.1738 39.7641C62.1604 51.894 52.2591 61.7373 40.1011 61.7373ZM52.2056 45.2907C51.5459 44.9607 48.2879 43.3641 47.6752 43.1374C47.0658 42.9207 46.6204 42.8074 46.1851 43.4674C45.7398 44.1241 44.4674 45.6207 44.0857 46.0507C43.704 46.494 43.3089 46.544 42.6459 46.2174C41.9862 45.884 39.8466 45.1907 37.3152 42.9341C35.3397 41.1841 34.0171 39.0174 33.6219 38.3607C33.2402 37.7007 33.5851 37.3474 33.9166 37.0174C34.2079 36.7241 34.5762 36.2441 34.9077 35.8641C35.2426 35.4841 35.3531 35.2041 35.5707 34.7641C35.7884 34.3174 35.6846 33.9374 35.5205 33.6074C35.3531 33.2774 34.0304 30.0208 33.4713 28.7074C32.9355 27.4108 32.3897 27.5908 31.9812 27.5741C31.5995 27.5508 31.1542 27.5508 30.7088 27.5508C30.3725 27.5591 30.0416 27.6365 29.7368 27.7782C29.432 27.9199 29.1598 28.1228 28.9375 28.3741C28.3281 29.0341 26.6238 30.6308 26.6238 33.8874C26.6238 37.1441 29.0011 40.2741 29.336 40.7174C29.6641 41.1607 34.0037 47.824 40.6636 50.6907C42.2374 51.374 43.4763 51.7774 44.444 52.084C46.0345 52.5907 47.4709 52.514 48.6161 52.3507C49.8885 52.1574 52.5371 50.7507 53.0962 49.2074C53.6454 47.6607 53.6454 46.3407 53.478 46.064C53.3139 45.784 52.8685 45.6207 52.2056 45.2907Z" fill="white"/>
</svg>
