<svg width="100" height="95" viewBox="0 0 100 95" fill="none" xmlns="http://www.w3.org/2000/svg">
<path d="M85.3554 81.0876C75.9114 90.0592 63.3556 95 50 95C36.6444 95 24.0886 90.0592 14.6446 81.0876C5.20114 72.1159 0 60.1878 0 47.5C0 34.8122 5.20114 22.8841 14.6446 13.9124C24.0886 4.94077 36.6444 0 50 0C63.3556 0 75.9114 4.94077 85.3554 13.9124C94.799 22.8841 100 34.8122 100 47.5C100 60.1878 94.799 72.1159 85.3554 81.0876ZM83.141 16.0162C74.2887 7.60636 62.519 2.97495 50 2.97495C37.481 2.97495 25.7113 7.60636 16.8588 16.0162C8.0067 24.4257 3.13154 35.607 3.13154 47.5C3.13154 59.393 8.0067 70.5743 16.8588 78.9838C25.7113 87.3936 37.481 92.025 50 92.025C62.519 92.025 74.2887 87.3936 83.141 78.9838C91.9933 70.5743 96.8685 59.393 96.8685 47.5C96.8685 35.607 91.9933 24.4257 83.141 16.0162ZM51.5657 76.0595H48.4342V83.9927H51.5657V76.0595ZM48.4342 18.9405H51.5657V11.0074H48.4342V18.9405ZM19.9374 46.0126H11.5866V48.9876H19.9373V46.0126H19.9374ZM88.4134 48.9876V46.0126H80.0628V48.9876H88.4134ZM31.9422 74.2369L29.4369 78.359L32.1489 79.8466L34.6541 75.7245L31.9422 74.2369ZM68.0552 20.7606L70.5605 16.6385L67.8484 15.1511L65.3431 19.2732L68.0552 20.7606ZM20.2877 32.9211L21.8536 30.3447L17.5145 27.9648L15.9487 30.5411L20.2877 32.9211ZM79.7111 62.0802L78.1453 64.6565L82.4845 67.0365L84.0502 64.4601L79.7111 62.0802ZM68.0559 74.2383L65.344 75.7259L67.8492 79.848L70.5611 78.3604L68.0559 74.2383ZM31.943 20.7603L34.6549 19.2729L32.1497 15.1506L29.4377 16.6382L31.943 20.7603ZM79.7129 32.9201L84.0521 30.5402L82.4863 27.9638L78.1472 30.3438L79.7129 32.9201ZM17.5165 67.0337L21.8556 64.6537L20.2897 62.0774L15.9507 64.4573L17.5165 67.0337ZM54.906 47.5C54.906 49.5498 53.5052 51.2935 51.5657 51.9159V72.8863H48.4342V51.9161C46.4946 51.2938 45.094 49.5501 45.094 47.5002C45.094 44.9302 47.2948 42.8394 50 42.8394C51.2418 42.8394 52.3766 43.281 53.2418 44.0063L72.3768 33.5187L73.9417 36.0955L54.8098 46.5815C54.8726 46.8782 54.906 47.1855 54.906 47.5ZM50 45.8142C49.0216 45.8142 48.2255 46.5705 48.2255 47.5C48.2255 48.4295 49.0216 49.1858 50 49.1858C50.9784 49.1858 51.7745 48.4295 51.7745 47.5C51.7745 46.5705 50.9784 45.8142 50 45.8142ZM50 87.0669C27.0345 87.0669 8.35065 69.3172 8.35065 47.5C8.35065 25.6828 27.0343 7.93312 50 7.93312C72.9655 7.93312 91.6493 25.6828 91.6493 47.5C91.6493 69.3172 72.9655 87.0669 50 87.0669ZM50 10.9081C28.7613 10.9081 11.4822 27.3234 11.4822 47.5C11.4822 67.6766 28.7613 84.0919 50 84.0919C71.2387 84.0919 88.5178 67.6766 88.5178 47.5C88.5178 27.3234 71.2387 10.9081 50 10.9081Z" fill="#DBC6B0"/>
</svg>
